<mxfile host="app.diagrams.net" modified="2024-08-19T22:40:13.899Z" agent="Mozilla/5.0 (Macintosh; Intel Mac OS X 10_15_7) AppleWebKit/537.36 (KHTML, like Gecko) Chrome/127.0.0.0 Safari/537.36" etag="t1xwWwZgDh69fu8v14SO" version="24.3.1" type="device">
  <diagram name="Page-1" id="5f0bae14-7c28-e335-631c-24af17079c00">
    <mxGraphModel dx="1194" dy="743" grid="1" gridSize="10" guides="1" tooltips="1" connect="1" arrows="1" fold="1" page="1" pageScale="1" pageWidth="1100" pageHeight="850" background="none" math="0" shadow="0">
      <root>
        <mxCell id="0" />
        <mxCell id="1" parent="0" />
        <mxCell id="lY8usDc5xtkXF_DEU_T8-3" value="" style="edgeStyle=orthogonalEdgeStyle;rounded=0;orthogonalLoop=1;jettySize=auto;html=1;" edge="1" parent="1" source="lY8usDc5xtkXF_DEU_T8-1" target="lY8usDc5xtkXF_DEU_T8-2">
          <mxGeometry relative="1" as="geometry" />
        </mxCell>
        <mxCell id="lY8usDc5xtkXF_DEU_T8-1" value="Controller" style="shape=module;align=left;spacingLeft=20;align=center;verticalAlign=top;whiteSpace=wrap;html=1;" vertex="1" parent="1">
          <mxGeometry x="210" y="150" width="100" height="50" as="geometry" />
        </mxCell>
        <mxCell id="lY8usDc5xtkXF_DEU_T8-7" value="" style="edgeStyle=orthogonalEdgeStyle;rounded=0;orthogonalLoop=1;jettySize=auto;html=1;" edge="1" parent="1" source="lY8usDc5xtkXF_DEU_T8-2" target="lY8usDc5xtkXF_DEU_T8-6">
          <mxGeometry relative="1" as="geometry" />
        </mxCell>
        <mxCell id="lY8usDc5xtkXF_DEU_T8-2" value="Service" style="shape=module;align=left;spacingLeft=20;align=center;verticalAlign=top;whiteSpace=wrap;html=1;" vertex="1" parent="1">
          <mxGeometry x="450" y="150" width="100" height="50" as="geometry" />
        </mxCell>
        <mxCell id="lY8usDc5xtkXF_DEU_T8-4" value="" style="ellipse;html=1;shape=startState;fillColor=#000000;strokeColor=#ff0000;" vertex="1" parent="1">
          <mxGeometry x="40" y="60" width="30" height="30" as="geometry" />
        </mxCell>
        <mxCell id="lY8usDc5xtkXF_DEU_T8-5" value="" style="edgeStyle=orthogonalEdgeStyle;html=1;verticalAlign=bottom;endArrow=open;endSize=8;strokeColor=#ff0000;rounded=0;entryX=0.5;entryY=0;entryDx=0;entryDy=0;" edge="1" source="lY8usDc5xtkXF_DEU_T8-4" parent="1" target="lY8usDc5xtkXF_DEU_T8-1">
          <mxGeometry relative="1" as="geometry">
            <mxPoint x="55" y="150" as="targetPoint" />
          </mxGeometry>
        </mxCell>
        <mxCell id="lY8usDc5xtkXF_DEU_T8-9" value="" style="edgeStyle=orthogonalEdgeStyle;rounded=0;orthogonalLoop=1;jettySize=auto;html=1;" edge="1" parent="1" source="lY8usDc5xtkXF_DEU_T8-6" target="lY8usDc5xtkXF_DEU_T8-8">
          <mxGeometry relative="1" as="geometry" />
        </mxCell>
        <mxCell id="lY8usDc5xtkXF_DEU_T8-6" value="Repository" style="shape=module;align=left;spacingLeft=20;align=center;verticalAlign=top;whiteSpace=wrap;html=1;" vertex="1" parent="1">
          <mxGeometry x="630" y="150" width="100" height="50" as="geometry" />
        </mxCell>
        <mxCell id="lY8usDc5xtkXF_DEU_T8-8" value="DB" style="shape=module;align=left;spacingLeft=20;align=center;verticalAlign=top;whiteSpace=wrap;html=1;" vertex="1" parent="1">
          <mxGeometry x="810" y="150" width="100" height="50" as="geometry" />
        </mxCell>
        <mxCell id="lY8usDc5xtkXF_DEU_T8-10" value="" style="html=1;verticalAlign=bottom;endArrow=open;dashed=1;endSize=8;curved=0;rounded=0;exitX=0.5;exitY=1;exitDx=0;exitDy=0;entryX=0.75;entryY=1;entryDx=0;entryDy=0;" edge="1" parent="1" source="lY8usDc5xtkXF_DEU_T8-6" target="lY8usDc5xtkXF_DEU_T8-2">
          <mxGeometry relative="1" as="geometry">
            <mxPoint x="510" y="390" as="sourcePoint" />
            <mxPoint x="430" y="390" as="targetPoint" />
            <Array as="points">
              <mxPoint x="680" y="270" />
              <mxPoint x="525" y="270" />
            </Array>
          </mxGeometry>
        </mxCell>
        <mxCell id="lY8usDc5xtkXF_DEU_T8-11" value="" style="html=1;verticalAlign=bottom;endArrow=open;dashed=1;endSize=8;curved=0;rounded=0;entryX=0.75;entryY=1;entryDx=0;entryDy=0;exitX=0.25;exitY=1;exitDx=0;exitDy=0;" edge="1" parent="1" source="lY8usDc5xtkXF_DEU_T8-2" target="lY8usDc5xtkXF_DEU_T8-1">
          <mxGeometry relative="1" as="geometry">
            <mxPoint x="510" y="390" as="sourcePoint" />
            <mxPoint x="430" y="390" as="targetPoint" />
            <Array as="points">
              <mxPoint x="475" y="270" />
              <mxPoint x="285" y="270" />
            </Array>
          </mxGeometry>
        </mxCell>
        <mxCell id="lY8usDc5xtkXF_DEU_T8-14" value="" style="html=1;verticalAlign=bottom;endArrow=open;dashed=1;endSize=8;curved=0;rounded=0;exitX=0.25;exitY=1;exitDx=0;exitDy=0;" edge="1" parent="1" source="lY8usDc5xtkXF_DEU_T8-1" target="lY8usDc5xtkXF_DEU_T8-16">
          <mxGeometry relative="1" as="geometry">
            <mxPoint x="510" y="390" as="sourcePoint" />
            <mxPoint x="180" y="400" as="targetPoint" />
          </mxGeometry>
        </mxCell>
        <mxCell id="lY8usDc5xtkXF_DEU_T8-15" value="" style="ellipse;html=1;shape=endState;fillColor=#000000;strokeColor=#ff0000;" vertex="1" parent="1">
          <mxGeometry x="40" y="270" width="30" height="30" as="geometry" />
        </mxCell>
        <mxCell id="lY8usDc5xtkXF_DEU_T8-17" style="edgeStyle=orthogonalEdgeStyle;rounded=0;orthogonalLoop=1;jettySize=auto;html=1;entryX=1;entryY=0.5;entryDx=0;entryDy=0;" edge="1" parent="1" source="lY8usDc5xtkXF_DEU_T8-16" target="lY8usDc5xtkXF_DEU_T8-15">
          <mxGeometry relative="1" as="geometry" />
        </mxCell>
        <mxCell id="lY8usDc5xtkXF_DEU_T8-16" value="" style="dashed=0;outlineConnect=0;html=1;align=center;labelPosition=center;verticalLabelPosition=bottom;verticalAlign=top;shape=mxgraph.webicons.json;gradientColor=#DFDEDE" vertex="1" parent="1">
          <mxGeometry x="130" y="268.8" width="40.4" height="32.4" as="geometry" />
        </mxCell>
        <mxCell id="lY8usDc5xtkXF_DEU_T8-18" value="" style="html=1;verticalAlign=bottom;endArrow=open;dashed=1;endSize=8;curved=0;rounded=0;exitX=0.5;exitY=1;exitDx=0;exitDy=0;entryX=0.75;entryY=1;entryDx=0;entryDy=0;" edge="1" parent="1" source="lY8usDc5xtkXF_DEU_T8-8" target="lY8usDc5xtkXF_DEU_T8-6">
          <mxGeometry relative="1" as="geometry">
            <mxPoint x="510" y="390" as="sourcePoint" />
            <mxPoint x="430" y="390" as="targetPoint" />
            <Array as="points">
              <mxPoint x="860" y="270" />
              <mxPoint x="705" y="270" />
            </Array>
          </mxGeometry>
        </mxCell>
      </root>
    </mxGraphModel>
  </diagram>
</mxfile>
